<svg xmlns="http://www.w3.org/2000/svg" xmlns:xlink="http://www.w3.org/1999/xlink" width="24" height="24" x="0" y="0" enable-background="new 0 0 60 60" version="1.1" viewBox="0 0 60 60" xml:space="preserve"><rect width="10" height="6" x="16.5" y="31" fill="#666"/><path fill="#666" d="M3.5,0c-0.552,0-1,0.447-1,1v3v55c0,0.553,0.448,1,1,1s1-0.447,1-1V4V1C4.5,0.447,4.052,0,3.5,0z"/><rect width="22" height="29" x="4.5" y="4" fill="#5F99EA"/><path fill="#3B85D9" d="M26.5,9v24h-6c-2.209,0-4,1.791-4,4c0,2.209,1.791,4,4,4h4h33l-11-16l11-16H26.5z"/><path fill="#5F88EA" d="M16.5,37c0,2.209,1.791,4,4,4h4h2v-8h-6C18.291,33,16.5,34.791,16.5,37z"/></svg>